<svg width="24" height="24" viewBox="0 0 24 24" fill="none" xmlns="http://www.w3.org/2000/svg">
<g id="Side Arrow">
<path id="Vector" d="M8.28982 12.0058L16.7818 3.27877C16.8517 3.20844 16.907 3.12494 16.9444 3.03311C16.9819 2.94128 17.0007 2.84293 16.9999 2.74377C16.9991 2.6446 16.9786 2.54659 16.9396 2.45539C16.9007 2.36419 16.844 2.28163 16.773 2.21247C16.7019 2.14331 16.6178 2.08894 16.5256 2.05249C16.4334 2.01604 16.3348 1.99825 16.2357 2.00014C16.1365 2.00202 16.0387 2.02356 15.9479 2.06349C15.8572 2.10342 15.7752 2.16095 15.7068 2.23277L6.70682 11.4828C6.5706 11.6228 6.49438 11.8104 6.49438 12.0058C6.49438 12.2011 6.5706 12.3888 6.70682 12.5288L15.7068 21.7788C15.7752 21.8506 15.8572 21.9081 15.9479 21.948C16.0387 21.988 16.1365 22.0095 16.2357 22.0114C16.3348 22.0133 16.4334 21.9955 16.5256 21.959C16.6178 21.9226 16.7019 21.8682 16.773 21.7991C16.844 21.7299 16.9007 21.6473 16.9396 21.5561C16.9786 21.4649 16.9991 21.3669 16.9999 21.2678C17.0007 21.1686 16.9819 21.0703 16.9444 20.9784C16.907 20.8866 16.8517 20.8031 16.7818 20.7328L8.28982 12.0058Z" fill="#121212"/>
</g>
</svg>
